<?xml version="1.0" encoding="UTF-8"?>
<svg version="1.1" xmlns="http://www.w3.org/2000/svg" width="1200" height="1200">
<path d="M0 0 C0.66 0 1.32 0 2 0 C9.41096928 16.95008167 16.69282032 33.9517529 23.875 51 C34.37463371 75.91852747 44.96268665 100.79893309 55.57824707 125.66827393 C56.97320299 128.93720407 58.367127 132.20657229 59.76074219 135.47607422 C71.24331206 162.41015129 82.88845592 189.26468944 94.78613281 216.01806641 C96.92373247 220.82562127 99.05235296 225.63711501 101.1796875 230.44921875 C114.41966924 260.37960172 128.0389058 290.12380611 142.03172302 319.70954895 C144.28631176 324.47964344 146.5243573 329.25722022 148.75390625 334.0390625 C162.94144498 364.4356156 177.69103259 394.57074562 192.77636719 424.53149414 C196.08883498 431.12489821 199.2838922 437.76686594 202.4375 444.4375 C206.71451597 453.46385459 211.24933446 462.33111683 215.88549805 471.17749023 C223.21783481 485.23056488 230.24418398 499.43803312 237.29760742 513.63256836 C242.30564675 523.69783928 247.3811508 533.71613813 252.64593506 543.64978027 C255.68784012 549.38982673 258.62949973 555.17218882 261.5 561 C266.0892416 570.24275373 270.8475168 579.38425699 275.68017578 588.50146484 C278.09613077 593.07506517 280.48451062 597.66305322 282.875 602.25 C283.37620361 603.21123779 283.87740723 604.17247559 284.39379883 605.1628418 C286.44336224 609.09398236 288.49216334 613.02552003 290.54101562 616.95703125 C295.65644141 626.77188886 300.77444593 636.58509545 305.9375 646.375 C310.38739255 654.81264615 314.78724471 663.2759297 319.18334961 671.74169922 C322.83069145 678.7617999 326.50156367 685.76888588 330.19580078 692.7644043 C332.5103828 697.15283325 334.80645104 701.5502579 337.0859375 705.95703125 C342.76623904 716.9362232 348.52230891 727.85934783 354.47998047 738.69067383 C358.25470027 745.57591626 361.89636827 752.52388264 365.5 759.5 C370.06846157 768.34354192 374.75539832 777.10972056 379.55078125 785.83203125 C383.12147897 792.34385631 386.5831865 798.90626629 390 805.5 C393.91250477 813.04995632 397.90568484 820.54706693 402 828 C406.6178288 836.40589148 411.0873088 844.8794162 415.5 853.39453125 C418.91949181 859.97527199 422.42929273 866.50019692 426 873 C430.61085265 881.39319271 435.07810947 889.85168734 439.47802734 898.35717773 C443.57497212 906.25226147 447.8249732 914.05789514 452.16796875 921.8203125 C454.55803847 926.13806788 456.66421267 930.21473832 458 935 C451.04415489 931.57313993 444.13067647 928.08763358 437.28833008 924.43920898 C394.54167995 901.67858221 348.14104301 884.27022365 301 873 C302.1432373 873.59349243 302.1432373 873.59349243 303.30957031 874.19897461 C322.32806087 884.11023907 340.83135081 894.60712635 359 906 C360.11342773 906.69689941 361.22685547 907.39379883 362.37402344 908.11181641 C374.8088762 915.91953564 387.07100422 923.90859148 398.9609375 932.52587891 C401.10183234 934.07361873 403.25309989 935.60608122 405.40625 937.13671875 C419.7486612 947.36446567 433.60576815 958.16896105 447.24267578 969.31640625 C451.45797286 972.76003624 455.70957014 976.15053941 460 979.5 C465.82598706 984.0498821 471.57451635 988.68958529 477.30273438 993.36181641 C481.70471154 996.95216556 486.13042563 1000.50940227 490.59375 1004.0234375 C491.3878125 1004.67570313 492.181875 1005.32796875 493 1006 C493.58362305 1006.41338623 494.16724609 1006.82677246 494.76855469 1007.25268555 C501.89750199 1012.72315036 505.30043834 1020.23110667 509.25 1028.0625 C509.99646472 1029.51009988 510.7448589 1030.95670635 511.49511719 1032.40234375 C512.98599238 1035.27698202 514.47006385 1038.15495984 515.94921875 1041.03564453 C518.6294712 1046.23802198 521.42697528 1051.37396883 524.25 1056.5 C525.20475085 1058.24201009 526.15917918 1059.98419699 527.11328125 1061.7265625 C527.58330566 1062.58411133 528.05333008 1063.44166016 528.53759766 1064.32519531 C531.18502459 1069.16746735 533.8107337 1074.02149844 536.4375 1078.875 C536.97793945 1079.87337891 537.51837891 1080.87175781 538.07519531 1081.90039062 C539.16985261 1083.92280096 540.26441615 1085.94526204 541.35888672 1087.96777344 C544.07122138 1092.97925759 546.78571261 1097.98957329 549.5 1103 C550.58334382 1104.99999432 551.66667715 1106.99999432 552.75 1109 C553.28625 1109.99 553.8225 1110.98 554.375 1112 C572.24999997 1144.99999994 572.24999997 1144.99999994 573.87670898 1148.00317383 C574.95432471 1149.99260577 576.03196125 1151.98202644 577.10961914 1153.97143555 C579.90560732 1159.13303201 582.70117618 1164.29485498 585.49609375 1169.45703125 C586.07230469 1170.52115234 586.64851563 1171.58527344 587.2421875 1172.68164062 C588.33216755 1174.69458766 589.42202176 1176.70760285 590.51171875 1178.72070312 C591.011875 1179.64431641 591.51203125 1180.56792969 592.02734375 1181.51953125 C592.51187012 1182.41623535 592.99639648 1183.31293945 593.49560547 1184.23681641 C594.55752692 1186.18729142 595.6305458 1188.13174425 596.71142578 1190.07177734 C597.26169434 1191.06258301 597.81196289 1192.05338867 598.37890625 1193.07421875 C598.88107666 1193.97100342 599.38324707 1194.86778809 599.90063477 1195.79174805 C601 1198 601 1198 601 1200 C596.98740933 1198.76979344 593.53497513 1197.31935044 589.9375 1195.1640625 C588.98738037 1194.60066162 588.03726074 1194.03726074 587.05834961 1193.45678711 C585.54446655 1192.55005249 585.54446655 1192.55005249 584 1191.625 C576.050139 1186.92298859 568.06558376 1182.32465866 559.9375 1177.9375 C552.6135135 1173.98411531 545.35159858 1169.94107836 538.125 1165.8125 C525.52601426 1158.63704859 512.7061122 1151.89044535 499.88682556 1145.12034607 C493.50615241 1141.74680416 487.15892477 1138.31246307 480.8125 1134.875 C447.43188737 1116.85044514 413.55714638 1099.60795453 379.01507568 1083.9173584 C376.85036081 1082.93187712 374.68794965 1081.9414636 372.52587891 1080.95019531 C300.00302358 1047.71898095 225.68006733 1020.10561084 147.81188965 1002.36170959 C142.16275515 1001.06374963 136.57139135 999.59709705 131 998 C131.14099121 997.14172607 131.28198242 996.28345215 131.42724609 995.39916992 C144.64036602 914.09140859 139.6521879 823.23611859 90 754 C84.72862879 746.98550604 78.96868169 740.42613539 73 734 C72.43796875 733.38382813 71.8759375 732.76765625 71.296875 732.1328125 C66.12069651 726.68023613 60.1146122 722.34114334 54 718 C52.66775391 717.05060547 52.66775391 717.05060547 51.30859375 716.08203125 C32.70554871 703.52289652 9.24821961 698.18283775 -12.875 702.125 C-34.82250886 706.42770221 -51.82805752 717.96246784 -68 733 C-68.65613281 733.59039063 -69.31226563 734.18078125 -69.98828125 734.7890625 C-80.6271624 744.78917025 -88.83600575 757.52447144 -95.97070312 770.17626953 C-96.64395271 771.36914771 -97.32466958 772.55784991 -98.01367188 773.74169922 C-123.10654552 816.89606135 -131.2199155 869.51259975 -131.25 918.6875 C-131.25067474 919.68377411 -131.25134949 920.68004822 -131.25204468 921.70651245 C-131.22454163 947.35503242 -127.83121486 971.84614366 -123 997 C-131.26414249 999.11212805 -139.53736311 1001.152495 -147.86328125 1003.0078125 C-208.68405262 1016.5870534 -267.71558531 1036.50890127 -325 1061 C-325.98597168 1061.42055664 -326.97194336 1061.84111328 -327.98779297 1062.27441406 C-334.67911213 1065.13678023 -341.34321971 1068.05835367 -348 1071 C-349.04397949 1071.45890625 -350.08795898 1071.9178125 -351.16357422 1072.390625 C-392.80182848 1090.71860084 -434.29984278 1110.1559365 -474.06640625 1132.28125 C-479.4896111 1135.29353525 -484.99117912 1138.14815931 -490.5 1141 C-500.7191726 1146.30194014 -510.8443915 1151.75949629 -520.93017578 1157.31054688 C-523.70317194 1158.83664306 -526.47774242 1160.35984302 -529.25271606 1161.88233948 C-543.34927231 1169.6190655 -557.38216967 1177.45425173 -571.32568359 1185.46435547 C-576.44124617 1188.40181106 -581.56159517 1191.33062894 -586.6875 1194.25 C-587.68700684 1194.82387451 -588.68651367 1195.39774902 -589.71630859 1195.98901367 C-590.63879395 1196.51342041 -591.5612793 1197.03782715 -592.51171875 1197.578125 C-593.74088013 1198.28050293 -593.74088013 1198.28050293 -594.99487305 1198.99707031 C-597 1200 -597 1200 -599 1200 C-597.72701932 1195.85871685 -596.17498763 1192.22950386 -594.05078125 1188.45703125 C-593.45789307 1187.39758301 -592.86500488 1186.33813477 -592.25415039 1185.24658203 C-591.61340576 1184.11333496 -590.97266113 1182.98008789 -590.3125 1181.8125 C-589.63673782 1180.60821895 -588.96153654 1179.403623 -588.28686523 1178.19873047 C-586.88680084 1175.69944197 -585.48434775 1173.20151784 -584.08007812 1170.70458984 C-580.88690784 1165.02288638 -577.72553631 1159.32351612 -574.5625 1153.625 C-573.94737549 1152.51809814 -573.33225098 1151.41119629 -572.69848633 1150.27075195 C-568.11642527 1142.02256655 -563.55483593 1133.76323451 -559 1125.5 C-550.75119352 1110.53528483 -542.45176809 1095.59891324 -534.14550781 1080.66601562 C-525.41280316 1064.96460348 -516.71094643 1049.24661217 -508.03924561 1033.51145935 C-505.65975777 1029.19456626 -503.27602265 1024.88003603 -500.890625 1020.56640625 C-494.04130168 1008.17701062 -487.23208802 995.76807574 -480.50439453 983.31201172 C-476.64768784 976.17764383 -472.73017268 969.079704 -468.78125 961.99609375 C-465.23414916 955.63116541 -461.70955472 949.2538095 -458.1875 942.875 C-457.84330017 942.25176849 -457.49910034 941.62853699 -457.14447021 940.98641968 C-451.94751416 931.57276991 -446.81550517 922.12576406 -441.71459961 912.65966797 C-438.14468975 906.05629659 -434.4723488 899.51841204 -430.75 893 C-424.69003022 882.37321766 -418.95218018 871.58741777 -413.23632812 860.7734375 C-412.51567993 859.41012721 -411.79497743 858.04684563 -411.07421875 856.68359375 C-410.72310028 856.01947479 -410.37198181 855.35535583 -410.01022339 854.67111206 C-405.57731932 846.29738632 -401.0207432 837.99189089 -396.46679688 829.68359375 C-393.79604069 824.79728351 -391.14923761 819.89799997 -388.5 815 C-384.87413513 808.29767624 -381.23912966 801.60064136 -377.58251953 794.91503906 C-371.90181535 784.52800944 -366.29098093 774.10459535 -360.70751953 763.66503906 C-360.06804377 762.46939574 -359.4285581 761.27375771 -358.7890625 760.078125 C-358.47252716 759.48630432 -358.15599182 758.89448364 -357.8298645 758.284729 C-354.56526702 752.18333553 -351.28339192 746.09129333 -348 740 C-341.59568714 728.11568948 -335.21741687 716.21755743 -328.847229 704.31492615 C-326.62804137 700.16969497 -324.4029342 696.02767462 -322.17578125 691.88671875 C-315.58997537 679.6354044 -309.08061656 667.34983124 -302.69384766 654.9934082 C-299.29968346 648.44544354 -295.81208976 641.95791108 -292.25 635.5 C-285.94451349 624.05513199 -279.9992332 612.4301389 -274.03675842 600.80444336 C-273.68044846 600.10971924 -273.32413849 599.41499512 -272.95703125 598.69921875 C-272.60624008 598.01512939 -272.25544891 597.33104004 -271.89402771 596.6262207 C-269.31801589 591.60734313 -266.70618652 586.60858816 -264.0625 581.625 C-258.65406504 571.41577948 -253.39376219 561.12998958 -248.12133789 550.85009766 C-247.3986636 549.44169927 -246.67592454 548.03333411 -245.953125 546.625 C-245.57849625 545.8947612 -245.20386749 545.1645224 -244.81788635 544.41215515 C-242.49488676 539.8902653 -240.15707583 535.3763771 -237.80810547 530.86791992 C-229.55816943 515.02690759 -221.48842723 499.10578838 -213.52526855 483.11920166 C-212.00923921 480.07676203 -210.49084713 477.03550205 -208.97265625 473.99414062 C-206.65495767 469.35053865 -204.33835326 464.70639243 -202.02270508 460.06176758 C-197.2197604 450.42869156 -192.4069407 440.80062884 -187.57745361 431.18083191 C-185.97496447 427.98819647 -184.37397838 424.79480852 -182.77319336 421.60131836 C-181.96857671 419.99711493 -181.16324253 418.39327119 -180.35717773 416.78979492 C-174.4005255 404.93814851 -168.63134097 393.00965358 -163 381 C-158.50793651 381 -158.50793651 381 -155.77734375 383.38671875 C-155.16648926 383.9062915 -154.55563477 384.42586426 -153.92626953 384.96118164 C-153.26997559 385.5308667 -152.61368164 386.10055176 -151.9375 386.6875 C-143.78656799 393.53266362 -135.21901408 399.53194645 -126.36279297 405.42236328 C-124.08658731 406.94218566 -121.82485554 408.48129459 -119.56640625 410.02734375 C-63.56654952 450.21294883 -63.56654952 450.21294883 0 472 C-1.01835938 471.29617188 -2.03671875 470.59234375 -3.0859375 469.8671875 C-14.01235117 462.26370823 -24.56589972 454.2632472 -35 446 C-35.91007813 445.28328125 -36.82015625 444.5665625 -37.7578125 443.828125 C-40.18594424 441.90208152 -42.59599302 439.95609883 -45 438 C-45.6276123 437.48969238 -46.25522461 436.97938477 -46.90185547 436.45361328 C-54.64339849 430.14904861 -62.32498905 423.8266626 -69.6796875 417.0703125 C-72.21735525 414.80606349 -74.84372088 412.68604347 -77.5 410.5625 C-82.11854224 406.82988406 -86.3044578 402.83389154 -90.41796875 398.5546875 C-92.4231682 396.57072314 -94.43519613 394.74600052 -96.57446289 392.91674805 C-101.37619168 388.73035163 -105.8843767 384.2774849 -110.390625 379.77734375 C-111.69117828 378.48178307 -111.69117828 378.48178307 -113.01800537 377.16004944 C-114.83785544 375.34523321 -116.65637867 373.52908557 -118.47363281 371.71166992 C-121.25044544 368.93705491 -124.03517367 366.17055092 -126.8203125 363.40429688 C-128.59423933 361.6333025 -130.36769329 359.86183433 -132.140625 358.08984375 C-132.96983459 357.26781967 -133.79904419 356.44579559 -134.65338135 355.59886169 C-143.10893667 347.10972641 -143.10893667 347.10972641 -145 343 C-144.33105469 339.95263672 -144.33105469 339.95263672 -142.671875 336.6796875 C-142.37693146 336.0761998 -142.08198792 335.4727121 -141.77810669 334.85093689 C-141.13299823 333.53839273 -140.47525434 332.23200135 -139.80657959 330.93130493 C-138.359569 328.11514698 -136.97437267 325.27001864 -135.58456421 322.42530823 C-134.84922606 320.92154736 -134.11074045 319.41932197 -133.36929321 317.91856384 C-129.29729567 309.65584379 -125.58053621 301.24424688 -121.875 292.8125 C-120.86177707 290.51628358 -119.8474317 288.22056562 -118.832901 285.92492676 C-118.16889394 284.42240996 -117.50526507 282.91972597 -116.84202576 281.41687012 C-114.300822 275.66350218 -111.71652676 269.9307134 -109.12255859 264.20092773 C-90.69723871 223.44319743 -73.81626371 181.96579876 -57.05905151 140.50006104 C-53.73713239 132.28068462 -50.40037052 124.06751716 -47.05078125 115.859375 C-46.61407104 114.78913589 -46.17736084 113.71889679 -45.72741699 112.6162262 C-44.82106976 110.39511942 -43.91471796 108.17401451 -43.00836182 105.95291138 C-33.27660643 82.10184524 -23.61775123 58.22208428 -14.0025568 34.3238287 C-13.222836 32.38602331 -12.44284042 30.44832875 -11.6627655 28.51066589 C-10.71329968 26.15189382 -9.76444459 23.79287576 -8.81636047 21.43354797 C-5.9312259 14.26624103 -2.98778249 7.12512376 0 0 Z " fill="#BBBBBB" transform="translate(599,0)"/>
</svg>
